<svg xmlns="http://www.w3.org/2000/svg" x="0" y="0" viewBox="0 0 512 511" style="width: 35px;height: 35px;" class=""><g><g xmlns="http://www.w3.org/2000/svg" fill="#00e9cc"><path d="m185.863281 457.390625v-70.136719h140.273438v70.136719" fill="#1663c1" data-original="#00e9cc" class=""/><path d="m51.601562 307.097656v-306.597656h70.136719v306.597656" fill="#1663c1" data-original="#00e9cc" class=""/><path d="m161.816406 307.097656v-226.441406l30.058594-50.097656 30.058594 50.097656v226.441406" fill="#1663c1" data-original="#00e9cc" class=""/></g><path xmlns="http://www.w3.org/2000/svg" d="m383.75 504.984375h-255.5v-27.554687c0-15.191407 12.363281-27.550782 27.554688-27.550782h200.390624c15.191407 0 27.554688 12.359375 27.554688 27.550782zm-240.46875-15.027344h225.4375v-12.527343c0-6.90625-5.617188-12.523438-12.523438-12.523438h-200.390624c-6.90625 0-12.523438 5.617188-12.523438 12.523438zm0 0" fill="#000000" data-original="#000000" class=""/><path xmlns="http://www.w3.org/2000/svg" d="m161.816406 259.507812h60.117188v15.027344h-60.117188zm0 0" fill="#000000" data-original="#000000" class=""/><path xmlns="http://www.w3.org/2000/svg" d="m51.601562 26.050781h44.085938v15.027344h-44.085938zm0 0" fill="#000000" data-original="#000000" class=""/><path xmlns="http://www.w3.org/2000/svg" d="m51.601562 56.109375h28.054688v15.027344h-28.054688zm0 0" fill="#000000" data-original="#000000" class=""/><path xmlns="http://www.w3.org/2000/svg" d="m51.601562 86.167969h44.085938v15.027343h-44.085938zm0 0" fill="#000000" data-original="#000000" class=""/><path xmlns="http://www.w3.org/2000/svg" d="m51.601562 116.226562h28.054688v15.027344h-28.054688zm0 0" fill="#000000" data-original="#000000" class=""/><path xmlns="http://www.w3.org/2000/svg" d="m51.601562 146.285156h44.085938v15.027344h-44.085938zm0 0" fill="#000000" data-original="#000000" class=""/><path xmlns="http://www.w3.org/2000/svg" d="m51.601562 176.34375h28.054688v15.027344h-28.054688zm0 0" fill="#000000" data-original="#000000" class=""/><path xmlns="http://www.w3.org/2000/svg" d="m51.601562 206.402344h44.085938v15.027344h-44.085938zm0 0" fill="#000000" data-original="#000000" class=""/><path xmlns="http://www.w3.org/2000/svg" d="m51.601562 236.460938h28.054688v15.027343h-28.054688zm0 0" fill="#000000" data-original="#000000" class=""/><path xmlns="http://www.w3.org/2000/svg" d="m51.601562 266.519531h44.085938v15.03125h-44.085938zm0 0" fill="#000000" data-original="#000000" class=""/><path xmlns="http://www.w3.org/2000/svg" d="m191.875 107.457031-33.925781-20.355469 7.730469-12.886718 26.195312 15.710937 26.191406-15.710937 7.734375 12.886718zm0 0" fill="#000000" data-original="#000000" class=""/><path xmlns="http://www.w3.org/2000/svg" d="m314.113281 76.648438h160.3125v70.136718h-160.3125zm0 0" fill="#1663c1" data-original="#00e9cc" class=""/><path xmlns="http://www.w3.org/2000/svg" d="m314.113281 176.84375h65.128907v40.078125h-65.128907zm0 0" fill="#1663c1" data-original="#00e9cc" class=""/><path xmlns="http://www.w3.org/2000/svg" d="m409.300781 176.84375h65.125v40.078125h-65.125zm0 0" fill="#1663c1" data-original="#00e9cc" class=""/><path xmlns="http://www.w3.org/2000/svg" d="m474.425781 39.074219h-243.476562v15.03125h243.476562c12.429688 0 22.542969 10.113281 22.542969 22.542969v222.9375h-481.9375v-222.9375c0-9.257813 5.800781-17.714844 14.433594-21.042969l-5.410156-14.023438c-14.386719 5.550781-24.054688 19.640625-24.054688 35.066407v280.546874c0 20.71875 16.855469 37.574219 37.574219 37.574219h436.851562c20.71875 0 37.574219-16.855469 37.574219-37.574219v-280.546874c0-20.71875-16.855469-37.574219-37.574219-37.574219zm0 340.667969h-436.851562c-12.429688 0-22.542969-10.113282-22.542969-22.546876v-42.582031h481.9375v42.582031c0 12.433594-10.113281 22.546876-22.542969 22.546876zm0 0" fill="#000000" data-original="#000000" class=""/><path xmlns="http://www.w3.org/2000/svg" d="m244.976562 269.527344v15.027344h45.089844v-15.027344h-15.027344v-185.363282h15.027344v-15.03125h-45.089844v15.03125h15.03125v185.363282zm0 0" fill="#000000" data-original="#000000" class=""/><path xmlns="http://www.w3.org/2000/svg" d="m293.574219 354.691406h-15.03125v-15.027344h15.03125zm-30.058594 0h-15.03125v-15.027344h15.03125zm-30.058594 0h-15.03125v-15.027344h15.03125zm0 0" fill="#000000" data-original="#000000" class=""/><path xmlns="http://www.w3.org/2000/svg" d="m199.390625 243.976562h-15.03125v-25.050781h15.03125zm0-40.078124h-15.03125v-15.03125h15.03125zm0-30.058594h-15.03125v-50.097656h15.03125zm0 0" fill="#000000" data-original="#000000" class=""/><path xmlns="http://www.w3.org/2000/svg" d="m379.242188 259.507812h-15.03125v-15.03125h15.03125zm-30.058594 0h-35.070313v-15.03125h35.070313zm0 0" fill="#000000" data-original="#000000" class=""/><path xmlns="http://www.w3.org/2000/svg" d="m474.425781 259.507812h-15.027343v-15.03125h15.027343zm-30.058593 0h-35.066407v-15.03125h35.066407zm0 0" fill="#000000" data-original="#000000" class=""/></g></svg>