<svg xmlns="http://www.w3.org/2000/svg" version="1.1" x="0" y="0" viewBox="0 0 64 64" style="width: 35px;height: 35px;" class=""><g><g xmlns="http://www.w3.org/2000/svg" fill="#f0bc5e"><path d="m31 17h-8v-12h8z" fill="#1663c1" data-original="#f0bc5e" class=""/><path d="m41 17h-8v-12h8z" fill="#1663c1" data-original="#f0bc5e" class=""/><path d="m44 32h15v5h-15z" fill="#1663c1" data-original="#f0bc5e" class=""/><path d="m27 31h15v5h-15z" fill="#1663c1" data-original="#f0bc5e" class=""/></g><path xmlns="http://www.w3.org/2000/svg" d="m44 31h15v2h-15z" fill="#000000" data-original="#000000" class=""/><path xmlns="http://www.w3.org/2000/svg" d="m40 31h2v2h-2z" fill="#000000" data-original="#000000" class=""/><path xmlns="http://www.w3.org/2000/svg" d="m27 31h11v2h-11z" fill="#000000" data-original="#000000" class=""/><path xmlns="http://www.w3.org/2000/svg" d="m27 35h15v2h-15z" fill="#000000" data-original="#000000" class=""/><path xmlns="http://www.w3.org/2000/svg" d="m44 35h11v2h-11z" fill="#000000" data-original="#000000" class=""/><path xmlns="http://www.w3.org/2000/svg" d="m57 35h2v2h-2z" fill="#000000" data-original="#000000" class=""/><path xmlns="http://www.w3.org/2000/svg" d="m40 53h-13v-14h20v7h-2v-5h-16v10h11z" fill="#000000" data-original="#000000" class=""/><path xmlns="http://www.w3.org/2000/svg" d="m59 59h-20v-14h20z" fill="#1663c1" data-original="#f0bc5e" class=""/><path xmlns="http://www.w3.org/2000/svg" d="m43 49h2v2h-2z" fill="#000000" data-original="#000000" class=""/><path xmlns="http://www.w3.org/2000/svg" d="m47 49h2v2h-2z" fill="#000000" data-original="#000000" class=""/><path xmlns="http://www.w3.org/2000/svg" d="m51 49h2v2h-2z" fill="#000000" data-original="#000000" class=""/><path xmlns="http://www.w3.org/2000/svg" d="m31 47h2v2h-2z" fill="#000000" data-original="#000000" class=""/><path xmlns="http://www.w3.org/2000/svg" d="m35 47h2v2h-2z" fill="#000000" data-original="#000000" class=""/><path xmlns="http://www.w3.org/2000/svg" d="m25 53c0-4.208-2.616-7.81-6.304-9.283 1.4-1.1 2.304-2.803 2.304-4.717 0-3.309-2.691-6-6-6s-6 2.691-6 6c0 1.914.904 3.617 2.304 4.717-3.688 1.473-6.304 5.075-6.304 9.283v6h20zm-9.042-1.372-.958.958-.958-.958.662-6.613c.099-.004.196-.015.296-.015s.197.011.296.015zm-4.958-12.628c0-2.206 1.794-4 4-4s4 1.794 4 4-1.794 4-4 4-4-1.794-4-4zm12 18h-2v-8h-2v8h-8v-8h-2v8h-2v-4c0-3.597 2.387-6.646 5.66-7.649l-.702 7.021 3.042 3.042 3.042-3.042-.702-7.021c3.273 1.003 5.66 4.052 5.66 7.649z" fill="#000000" data-original="#000000" class=""/><path xmlns="http://www.w3.org/2000/svg" d="m57 19v-9.414l-4.586-4.586h-7.414v-1c0-1.654-1.346-3-3-3h-20c-1.654 0-3 1.346-3 3v1h-7.414l-4.586 4.586v9.414h-6v44h62v-44zm-12-12h6.586l2 2h-8.586zm0 4h10v8h-2v-6h-6v6h-2zm6 4v4h-2v-4zm-30-11c0-.551.449-1 1-1h20c.551 0 1 .449 1 1v15h-22zm-8.586 3h6.586v2h-8.586zm-3.414 4h10v8h-2v-6h-6v6h-2zm6 4v4h-2v-4zm46 46h-58v-32h58zm0-34h-58v-6h58z" fill="#000000" data-original="#000000" class=""/><path xmlns="http://www.w3.org/2000/svg" d="m5 23h2v2h-2z" fill="#000000" data-original="#000000" class=""/><path xmlns="http://www.w3.org/2000/svg" d="m9 23h2v2h-2z" fill="#000000" data-original="#000000" class=""/><path xmlns="http://www.w3.org/2000/svg" d="m13 23h2v2h-2z" fill="#000000" data-original="#000000" class=""/></g></svg>