<svg xmlns="http://www.w3.org/2000/svg" xmlns:xlink="http://www.w3.org/1999/xlink" width="554.333" height="741" viewBox="0 0 554.333 741">
  <g id="Raggruppa_1508" data-name="Raggruppa 1508" transform="translate(-775.667 -3621)">
    <g id="rombo" data-name="Rettangolo 4051" transform="translate(927.952 3991.5) rotate(-45)" fill="#fff" stroke="#eaeaea" stroke-linecap="round" stroke-linejoin="round" stroke-width="2" class="effect">
        <rect width="40" height="40" stroke="none"></rect>
        <rect x="1" y="1" width="38" height="38" fill="none"></rect>
    </g>
    <g id="fasi" data-name="Raggruppa 1495" transform="translate(775.667 3621)" class="effect">
      <g id="fase-1" class="fase" data-name="Raggruppa 1507">
          <path id="Tracciato_4580" data-name="Tracciato 4580" d="M183.833,509a22.5,22.5,0,0,1,0-45,93.5,93.5,0,1,0-93.5-93.5,22.5,22.5,0,0,1-45,0A138.5,138.5,0,1,1,183.833,509" fill="#9880ba"></path>
          <path id="Tracciato_4581" data-name="Tracciato 4581" d="M63.6,369.608l.222-6.716,2.039.068-.145,4.389,1.427.047.131-3.97,1.931.064-.131,3.97,3,.1-.077,2.327Z" fill="#fff"></path>
          <path id="Tracciato_4582" data-name="Tracciato 4582" d="M64.046,359.631l.22-2.235,8.773-2.731-.245,2.485-1.553.462-.317,3.226,1.434.745-.239,2.437Zm5.325-1.527-2.469.7,2.284,1.177Z" fill="#fff"></path>
          <path id="Tracciato_4583" data-name="Tracciato 4583" d="M71.809,354.7,70.5,353.157a4.329,4.329,0,0,0,1.458-2.513c.106-.615-.049-.983-.4-1.044l-.024,0c-.343-.06-.579.18-1.034,1.258-.706,1.693-1.438,2.967-3.141,2.673l-.024-.005c-1.537-.265-2.438-1.676-2.094-3.662a5.288,5.288,0,0,1,1.688-3.216l1.422,1.427a4.218,4.218,0,0,0-1.217,2.177c-.1.556.093.868.389.92l.024,0c.378.065.593-.19,1.052-1.292.743-1.832,1.562-2.909,3.111-2.64l.024,0c1.691.293,2.465,1.8,2.117,3.813a5.867,5.867,0,0,1-2.042,3.642" fill="#fff"></path>
          <path id="Tracciato_4584" data-name="Tracciato 4584" d="M66.307,344.882l1.606-6.563,1.924.471-1.059,4.324,1.236.3.959-3.917,1.783.437-.958,3.917,1.294.317,1.072-4.384,1.924.471-1.621,6.622Z" fill="#fff"></path>
          <path id="Tracciato_4585" data-name="Tracciato 4585" d="M71.755,333.117l-.146,1.445-1.848-.156.129-2.554.542-1.6,8.014,2.71-.734,2.172Z" fill="#fff"></path>
      </g>
      <g id="fase-2" class="fase" data-name="Raggruppa 1506">
        <path id="Tracciato_4579" data-name="Tracciato 4579" d="M184.09,555.47H183.8a22.5,22.5,0,0,1,.035-45h.259a139.934,139.934,0,1,0-70.208-261.127A138.1,138.1,0,0,0,53.7,319.081,22.5,22.5,0,0,1,11.813,302.64,184.944,184.944,0,0,1,231.689,191.9a184.953,184.953,0,0,1-47.6,363.569" fill="#9d93b8"></path>
        <g id="Raggruppa_1505" data-name="Raggruppa 1505">
            <path id="Tracciato_4596" data-name="Tracciato 4596" d="M29.131,308.53l2.606-6.195,1.881.791-1.7,4.049,1.317.554,1.54-3.662,1.781.75-1.54,3.661,2.765,1.164-.9,2.146Z" fill="#fff"></path>
            <path id="Tracciato_4597" data-name="Tracciato 4597" d="M33.045,299.4l.967-2.026,9.179.418-1.076,2.254-1.618-.1-1.4,2.926,1.1,1.188-1.056,2.21Zm5.527.377-2.56-.184,1.748,1.885Z" fill="#fff"></path>
            <path id="Tracciato_4598" data-name="Tracciato 4598" d="M42.039,297.354l-.741-1.879a4.332,4.332,0,0,0,2.189-1.912c.3-.548.269-.946-.048-1.119l-.021-.011c-.305-.166-.606-.016-1.383.86-1.213,1.376-2.316,2.348-3.834,1.521l-.021-.011c-1.371-.746-1.771-2.371-.808-4.143a5.288,5.288,0,0,1,2.633-2.5l.888,1.809a4.22,4.22,0,0,0-1.852,1.671c-.269.495-.19.852.073,1l.021.012c.338.183.623.01,1.411-.886,1.293-1.5,2.415-2.253,3.8-1.5l.021.012c1.508.82,1.755,2.5.78,4.292a5.867,5.867,0,0,1-3.1,2.793" fill="#fff"></path>
            <path id="Tracciato_4599" data-name="Tracciato 4599" d="M39.919,286.359l3.514-5.773,1.692,1.03-2.316,3.8,1.087.662,2.1-3.446,1.569.955-2.1,3.445,1.138.693,2.347-3.855,1.692,1.029L47.1,290.728Z" fill="#fff"></path>
            <path id="Tracciato_4600" data-name="Tracciato 4600" d="M51.354,280.652l-.14-3.955c-.048-.991-.2-1.465-.61-1.756a.837.837,0,0,0-1.237.271c-.326.46-.318,1.01-.083,1.986l-1.977.527a3.89,3.89,0,0,1,.509-3.834c1.062-1.5,2.683-1.895,3.975-.979l.02.014c1.1.778,1.263,1.748,1.275,3.288l-.01,1.759,2.007-2.831,1.547,1.1-3.846,5.428Z" fill="#fff"></path>
        </g>
      </g>
      <g id="fase-3" class="fase active" data-name="Raggruppa 1504">
        <path id="Tracciato_4578" data-name="Tracciato 4578" d="M183.833,601.89a22.5,22.5,0,0,1-.037-45,187.768,187.768,0,0,0,48.255-6.438,186.3,186.3,0,0,0-96.435-359.9,184.566,184.566,0,0,0-95.7,61.576,22.5,22.5,0,1,1-34.822-28.5,231.416,231.416,0,0,1,294.394-53.433A231.3,231.3,0,0,1,243.7,593.918a232.793,232.793,0,0,1-59.827,7.972Z" fill="#a3a5b2"></path>
        <g id="Raggruppa_1503" data-name="Raggruppa 1503">
            <path id="Tracciato_4618" data-name="Tracciato 4618" d="M21.09,232.964l4.4-5.075,1.54,1.335-2.876,3.318,1.079.935,2.6-3,1.459,1.265-2.6,3,2.266,1.965-1.524,1.758Z" fill="#fff"></path>
            <path id="Tracciato_4619" data-name="Tracciato 4619" d="M27.581,225.534l1.532-1.641,8.627,3.162-1.7,1.825-1.514-.577-2.213,2.369L33,232.135l-1.671,1.79Zm5.157,2.023-2.385-.946,1.1,2.323Z" fill="#fff"></path>
            <path id="Tracciato_4620" data-name="Tracciato 4620" d="M36.8,226.261l-.164-2.012a4.325,4.325,0,0,0,2.648-1.194c.444-.439.532-.828.279-1.084l-.017-.018c-.244-.247-.575-.19-1.572.422-1.56.965-2.9,1.574-4.11.344l-.016-.018c-1.095-1.11-1.007-2.781.429-4.2a5.289,5.289,0,0,1,3.244-1.631l.325,1.988a4.21,4.21,0,0,0-2.256,1.061c-.4.4-.43.76-.219.974l.017.017c.269.274.593.191,1.606-.438,1.671-1.057,2.964-1.455,4.067-.336l.017.017c1.2,1.222.954,2.9-.5,4.333a5.864,5.864,0,0,1-3.78,1.771" fill="#fff"></path>
            <path id="Tracciato_4621" data-name="Tracciato 4621" d="M37.949,215.131l4.991-4.553,1.335,1.463-3.289,3,.857.94,2.979-2.718,1.237,1.357-2.979,2.717.9.984,3.333-3.041,1.334,1.463-5.035,4.594Z" fill="#fff"></path>
            <path id="Tracciato_4622" data-name="Tracciato 4622" d="M50.643,213.271l.2-2.059a2.75,2.75,0,0,0,2.157-.527c.511-.418.622-.943.3-1.342l-.016-.019c-.342-.417-.927-.356-1.6.2l-.761.624-1.027-.725.392-2.568L47.8,208.889,46.6,207.433l4.694-3.846,1.056,1.29-.462,2.6a2.367,2.367,0,0,1,3.176.452l.015.018c1.08,1.318.713,3.028-.734,4.214a4.574,4.574,0,0,1-3.707,1.114" fill="#fff"></path>
        </g>
      </g>
      <g id="fase-4" class="fase" data-name="Raggruppa 1502">
        <path id="Tracciato_4577" data-name="Tracciato 4577" d="M183.833,648.2a22.5,22.5,0,0,1,0-45,232.7,232.7,0,1,0-133.744-423.2,22.5,22.5,0,0,1-25.942-36.77A277.859,277.859,0,0,1,380.2,174.136,277.7,277.7,0,0,1,183.833,648.2" fill="#aab6a7"></path>
        <g id="Raggruppa_1501" data-name="Raggruppa 1501">
            <path id="Tracciato_4630" data-name="Tracciato 4630" d="M35.36,157.7l5.545-3.786,1.15,1.684-3.625,2.474.805,1.178,3.277-2.237L43.6,158.6l-3.278,2.238,1.69,2.476-1.922,1.311Z" fill="#fff"></path>
            <path id="Tracciato_4631" data-name="Tracciato 4631" d="M43.489,152.158l1.892-1.21,7.576,5.2-2.1,1.346-1.325-.934L46.8,158.31l.3,1.588-2.064,1.32Zm4.5,3.24-2.077-1.508.489,2.524Z" fill="#fff"></path>
            <path id="Tracciato_4632" data-name="Tracciato 4632" d="M52.257,155.138l.325-1.991a4.321,4.321,0,0,0,2.855-.523c.536-.318.715-.675.531-.985l-.012-.02c-.177-.3-.512-.324-1.627.031-1.745.561-3.188.831-4.069-.654l-.012-.021c-.8-1.341-.308-2.941,1.425-3.968a5.279,5.279,0,0,1,3.539-.8l-.162,2.007a4.218,4.218,0,0,0-2.444.488c-.485.287-.6.634-.447.892l.013.021c.195.33.528.328,1.664-.039,1.875-.624,3.224-.7,4.026.651l.012.021c.875,1.476.23,3.043-1.524,4.083a5.863,5.863,0,0,1-4.093.811" fill="#fff"></path>
            <path id="Tracciato_4633" data-name="Tracciato 4633" d="M56.016,144.617l5.919-3.265.957,1.735-3.9,2.152.614,1.114,3.533-1.948.887,1.608-3.533,1.948.644,1.167,3.953-2.18.957,1.735-5.972,3.293Z" fill="#fff"></path>
            <path id="Tracciato_4634" data-name="Tracciato 4634" d="M72.616,143.519l-3.647,1.8-1.072-1.3,1.611-6.574,2.109-1.041,2.251,4.561.958-.472.77,1.559-.958.473.722,1.463-2.022,1Zm-.765-1.549-1.067-2.162-.729,3.049Z" fill="#fff"></path>
        </g>
      </g>
      <g id="fase-5" class="fase" data-name="Raggruppa 1500">
        <path id="Tracciato_4576" data-name="Tracciato 4576" d="M184.315,694.729H183.8a22.5,22.5,0,0,1,.037-45h.482A279.481,279.481,0,0,0,453.423,442.737,279.1,279.1,0,0,0,256.069,100.91a277.9,277.9,0,0,0-152.94,2.3,22.5,22.5,0,0,1-13.1-43.053,324.4,324.4,0,0,1,374.478,148.3A324.1,324.1,0,0,1,345.883,651.179a323.681,323.681,0,0,1-161.568,43.55" fill="#b1c697"></path>
        <g id="Raggruppa_1499" data-name="Raggruppa 1499">
            <path id="Tracciato_4644" data-name="Tracciato 4644" d="M96.106,77.421l6.452-1.871.568,1.958-4.217,1.223.4,1.371L103.12,79l.538,1.855-3.813,1.106.835,2.88-2.235.648Z" fill="#fff"></path>
            <path id="Tracciato_4645" data-name="Tracciato 4645" d="M105.547,74.684l2.171-.571,5.612,7.278-2.415.634-.974-1.295-3.135.823-.2,1.6-2.369.623Zm3.283,4.463-1.513-2.073-.31,2.552Z" fill="#fff"></path>
            <path id="Tracciato_4646" data-name="Tracciato 4646" d="M113.01,80.2l.912-1.8a4.323,4.323,0,0,0,2.881.365c.608-.141.887-.427.805-.778l-.005-.023c-.079-.339-.391-.464-1.562-.463-1.834.007-3.292-.171-3.683-1.854l-.005-.024c-.353-1.519.6-2.9,2.559-3.354a5.287,5.287,0,0,1,3.619.305l-.762,1.865a4.209,4.209,0,0,0-2.478-.275c-.55.128-.764.424-.7.717l.006.023c.087.374.406.472,1.6.466,1.977-.028,3.287.308,3.643,1.839l0,.024c.389,1.671-.7,2.971-2.688,3.433a5.863,5.863,0,0,1-4.149-.465" fill="#fff"></path>
            <path id="Tracciato_4647" data-name="Tracciato 4647" d="M119.745,71.315l6.624-1.349.4,1.941L122.4,72.8l.254,1.248,3.953-.806.367,1.8-3.953.8.266,1.306,4.423-.9.395,1.941-6.682,1.36Z" fill="#fff"></path>
            <path id="Tracciato_4648" data-name="Tracciato 4648" d="M131.687,76.341l1.06-1.756a3.2,3.2,0,0,0,2.162.568c.757-.125,1.157-.581,1.059-1.172l0-.024c-.1-.592-.655-.877-1.378-.758a2.541,2.541,0,0,0-1.257.633l-1.487-.533-.457-4.243,5.542-.914.312,1.9-3.729.615.135,1.267a2.973,2.973,0,0,1,1.278-.515,2.611,2.611,0,0,1,3.275,2.16l0,.024c.305,1.847-.923,3.18-2.935,3.512a4.712,4.712,0,0,1-3.58-.759" fill="#fff"></path>
        </g>
      </g>
      <g id="fase-6" class="fase" data-name="Raggruppa 1498">
        <path id="Tracciato_4575" data-name="Tracciato 4575" d="M183.833,741a22.5,22.5,0,0,1,0-45c179.481,0,325.5-146.019,325.5-325.5S363.314,45,183.833,45a22.5,22.5,0,0,1,0-45A370.592,370.592,0,0,1,328.056,711.875,368.21,368.21,0,0,1,183.833,741" fill="#bad881"></path>
        <g id="Raggruppa_1497" data-name="Raggruppa 1497">
            <path id="Tracciato_4670" data-name="Tracciato 4670" d="M184.661,18.274l6.716.111-.033,2.039-4.39-.072-.024,1.427,3.971.065-.032,1.931-3.97-.065-.05,3-2.327-.038Z" fill="#fff"></path>
            <path id="Tracciato_4671" data-name="Tracciato 4671" d="M194.441,18.4l2.242.074,3.295,8.574-2.495-.082-.562-1.52-3.238-.107-.649,1.48-2.447-.081Zm1.868,5.213-.856-2.417-1.027,2.355Z" fill="#fff"></path>
            <path id="Tracciato_4672" data-name="Tracciato 4672" d="M200,25.8l1.382-1.471a4.324,4.324,0,0,0,2.661,1.162c.623.036.971-.16.991-.52l0-.024c.02-.347-.245-.555-1.368-.883-1.761-.51-3.109-1.092-3.011-2.817v-.024c.09-1.557,1.388-2.612,3.4-2.5a5.287,5.287,0,0,1,3.385,1.312l-1.256,1.575a4.208,4.208,0,0,0-2.3-.962c-.563-.032-.852.192-.869.491v.024c-.023.384.255.568,1.4.9,1.9.529,3.066,1.221,2.976,2.79v.024c-.1,1.713-1.511,2.653-3.547,2.537A5.865,5.865,0,0,1,200,25.8" fill="#fff"></path>
            <path id="Tracciato_4673" data-name="Tracciato 4673" d="M208.95,19.166l6.734.533-.155,1.973-4.438-.35-.1,1.268,4.02.318-.145,1.83-4.019-.318-.106,1.328,4.5.355-.155,1.975-6.795-.538Z" fill="#fff"></path>
            <path id="Tracciato_4674" data-name="Tracciato 4674" d="M220.3,27.805a4.178,4.178,0,0,1-.675-3.242l0-.023c.292-2.6,1.78-4.44,4.394-4.146a4.333,4.333,0,0,1,2.676,1.232l-1.269,1.512a2.655,2.655,0,0,0-1.588-.819c-.979-.11-1.55.563-1.775,1.6a2.838,2.838,0,0,1,1.875-.442A2.586,2.586,0,0,1,226.4,26.39v.024a3.066,3.066,0,0,1-3.657,2.633,3.378,3.378,0,0,1-2.445-1.242m3.831-1.514,0-.024a1.09,1.09,0,0,0-1.061-1.206,1.061,1.061,0,0,0-1.277.931l0,.024a1.094,1.094,0,0,0,1.059,1.219,1.064,1.064,0,0,0,1.278-.944" fill="#fff"></path>
        </g>
      </g>
    </g>
  </g>
</svg>